<svg width="1440" height="926" viewBox="0 0 1440 926" fill="none" xmlns="http://www.w3.org/2000/svg">
<path d="M1440 925.114H0V0C27.2985 0 30.3651 16.7949 41.7983 46.8456C43.447 45.889 45.1152 44.9665 46.802 44.0787C90.2594 21.1904 137.557 25.4936 152.442 53.6902C158.14 64.4925 158.259 77.2342 153.792 90.131C175.324 83.4835 204.767 87.24 232.53 102.186C245.977 109.427 257.446 118.439 266.413 128.267C274.506 123.956 283.747 121.512 293.56 121.512C317.868 121.512 338.674 136.507 347.204 157.741C348.506 157.654 349.821 157.61 351.143 157.61C361.095 157.61 370.459 160.123 378.636 164.55C397.782 124.104 438.999 96.1248 486.762 96.1248C552.78 96.1248 606.296 149.582 606.296 215.525C606.296 223.126 605.586 230.559 604.227 237.763C613.921 232.4 624.711 229.409 636.081 229.409C677.263 229.409 710.82 268.644 712.281 317.713C728.599 305.19 752.987 297.241 780.237 297.241C802.862 297.241 823.516 302.719 839.214 311.747C838.043 307.17 837.423 302.378 837.423 297.439C837.423 265.562 863.292 239.723 895.205 239.723C901.182 239.723 906.948 240.627 912.373 242.313C911.658 238.116 911.289 233.804 911.289 229.409C911.289 187.126 945.604 152.85 987.934 152.85C1027.65 152.85 1060.31 183.021 1064.19 221.67C1069.65 219.25 1075.69 217.905 1082.05 217.905H1082.43C1091.1 196.949 1111.75 182.204 1135.86 182.204C1144.39 182.204 1152.49 184.049 1159.77 187.362C1169.96 170.933 1188.17 159.99 1208.93 159.99C1212.62 159.99 1216.23 160.335 1219.72 160.993C1216.71 151.746 1215.09 141.876 1215.09 131.627C1215.09 79.1581 1257.67 36.6232 1310.2 36.6232C1337.36 36.6232 1361.86 47.9935 1379.19 66.2288C1392.72 52.3697 1419.09 42 1440 42V925.114Z" fill="#E1ECF4"/>
</svg>
