<svg width="1440" height="6935" viewBox="0 0 1440 6935" fill="none" xmlns="http://www.w3.org/2000/svg">
<path d="M1440 6935H0L-2.5 0.120117C-1.67065 0.366694 -0.837402 0.619882 0 0.87971C16.5 5.99963 32.4606 44.1414 32.4606 44.1414C34.1093 43.1524 35.7775 42.1987 37.4642 41.2808C80.9216 17.6173 128.219 22.0662 143.104 51.2178C148.802 62.386 148.922 75.5592 144.454 88.8928C165.986 82.0201 195.429 85.9039 223.192 101.357C236.639 108.842 248.108 118.16 257.075 128.32C265.168 123.863 274.409 121.337 284.222 121.337C308.53 121.337 329.336 136.839 337.866 158.793C339.169 158.703 340.483 158.657 341.806 158.657C351.758 158.657 361.122 161.255 369.298 165.832C388.444 124.017 429.662 95.0896 477.424 95.0896C543.442 95.0896 596.959 150.357 596.959 218.534C596.959 226.392 596.248 234.077 594.89 241.525C604.584 235.98 615.373 232.888 626.743 232.888C667.925 232.888 701.482 273.452 702.943 324.183C719.261 311.236 743.649 303.017 770.9 303.017C793.524 303.017 814.178 308.681 829.877 318.015C828.705 313.283 828.086 308.328 828.086 303.223C828.086 270.266 853.955 243.551 885.868 243.551C891.844 243.551 897.611 244.486 903.035 246.229C902.32 241.89 901.951 237.432 901.951 232.888C901.951 189.173 936.267 153.736 978.596 153.736C1018.31 153.736 1050.97 184.929 1054.86 224.887C1060.31 222.385 1066.36 220.995 1072.72 220.995H1073.1C1081.76 199.329 1102.42 184.084 1126.53 184.084C1135.05 184.084 1143.15 185.992 1150.44 189.417C1160.62 172.431 1178.83 161.118 1199.6 161.118C1203.28 161.118 1206.89 161.474 1210.38 162.155C1207.38 152.594 1205.75 142.39 1205.75 131.795C1205.75 77.5483 1248.34 33.5728 1300.86 33.5728C1328.02 33.5728 1352.52 45.3282 1369.85 64.1811C1390 33.5728 1440 42.9252 1440 42.9252V6935Z" fill="#E1ECF4"/>
</svg>
