<svg width="1440" height="585" viewBox="0 0 1440 585" fill="none" xmlns="http://www.w3.org/2000/svg">
<path d="M1440 160V583.5H646.5L0 585V307.5V30C8.5 28 41.2819 25.1492 56.1688 54.8575C61.8687 66.239 61.9878 79.6637 57.5193 93.2519C79.0554 86.248 108.504 90.206 136.272 105.954C149.721 113.582 161.192 123.078 170.161 133.432C178.255 128.89 187.498 126.315 197.313 126.315C221.626 126.315 242.435 142.114 250.967 164.487C252.27 164.395 253.584 164.348 254.907 164.348C264.861 164.348 274.227 166.996 282.405 171.66C301.554 129.047 342.779 99.5671 390.55 99.5671C456.58 99.5671 510.107 155.89 510.107 225.369C510.107 233.377 509.396 241.209 508.037 248.799C517.733 243.148 528.525 239.997 539.897 239.997C581.086 239.997 614.649 281.336 616.111 333.035C632.432 319.841 656.824 311.465 684.08 311.465C706.708 311.465 727.366 317.237 743.068 326.75C741.896 321.927 741.276 316.878 741.276 311.674C741.276 278.088 767.15 250.864 799.069 250.864C805.047 250.864 810.814 251.816 816.24 253.593C815.525 249.171 815.155 244.628 815.155 239.997C815.155 195.447 849.477 159.333 891.814 159.333C931.538 159.333 964.2 191.122 968.088 231.843C973.546 229.293 979.591 227.877 985.95 227.877H986.332C994.995 205.797 1015.66 190.261 1039.77 190.261C1048.3 190.261 1056.4 192.205 1063.69 195.695C1073.87 178.386 1092.09 166.856 1112.86 166.856C1116.54 166.856 1120.15 167.219 1123.64 167.913C1120.64 158.17 1119.01 147.771 1119.01 136.973C1119.01 81.6908 1161.6 36.8755 1214.14 36.8755C1241.3 36.8755 1265.81 48.8554 1283.14 68.0683C1296.67 53.4662 1315.57 44.3985 1336.48 44.3985C1349.07 44.3985 1360.93 47.6852 1371.32 53.4875C1385.85 20.4829 1403.16 0 1440 0V160Z" fill="#E1ECF4"/>
</svg>
