<svg width="30" height="37" viewBox="0 0 30 37" fill="none" xmlns="http://www.w3.org/2000/svg">
<path d="M22.6634 36.5H6.66343C3.14311 36.5 0.263428 33.6203 0.263428 30.1V12.5C0.263428 11.6203 0.983748 10.9 1.86343 10.9H8.26343V6.9C8.26343 3.37968 11.1431 0.5 14.6634 0.5C18.1837 0.5 21.0634 3.37968 21.0634 6.9V10.9H27.4634C28.3431 10.9 29.0634 11.6203 29.0634 12.5V30.1C29.0634 33.6203 26.1837 36.5 22.6634 36.5ZM11.4634 10.9H17.8634V6.9C17.8634 5.14064 16.4228 3.7 14.6634 3.7C12.9041 3.7 11.4634 5.14064 11.4634 6.9V10.9Z" fill="#7F91AD"/>
</svg>
