<svg width="1440" height="2033" viewBox="0 0 1440 2033" fill="none" xmlns="http://www.w3.org/2000/svg">
<path d="M1440 1061.47H0V17C10.2021 8.2014 30.4873 0.0253906 43.0961 0.0253906C70.3945 0.0253906 94.0273 23.6011 105.461 57.9379C107.109 56.8449 108.777 55.7908 110.464 54.7764C153.922 28.6236 201.219 33.5405 216.104 65.7588C221.802 78.1019 221.922 92.6609 217.454 107.397C238.986 99.8015 268.429 104.094 296.192 121.172C309.639 129.445 321.108 139.743 330.075 150.972C338.168 146.046 347.409 143.254 357.222 143.254C381.53 143.254 402.336 160.388 410.866 184.651C412.169 184.551 413.483 184.501 414.806 184.501C424.758 184.501 434.122 187.372 442.298 192.43C461.444 146.216 502.662 114.246 550.424 114.246C616.442 114.246 669.959 175.328 669.959 250.677C669.959 259.361 669.248 267.855 667.89 276.086C677.584 269.958 688.373 266.541 699.743 266.541C740.925 266.541 774.482 311.372 775.943 367.44C792.261 353.131 816.649 344.047 843.9 344.047C866.524 344.047 887.178 350.307 902.877 360.623C901.705 355.392 901.086 349.917 901.086 344.274C901.086 307.85 926.954 278.325 958.867 278.325C964.844 278.325 970.61 279.359 976.035 281.285C975.32 276.49 974.951 271.563 974.951 266.541C974.951 218.227 1009.27 179.061 1051.6 179.061C1091.31 179.061 1123.97 213.537 1127.86 257.698C1133.31 254.933 1139.36 253.396 1145.72 253.396H1146.1C1154.76 229.451 1175.42 212.602 1199.53 212.602C1208.05 212.602 1216.15 214.711 1223.44 218.496C1233.62 199.724 1251.83 187.22 1272.6 187.22C1276.28 187.22 1279.89 187.614 1283.38 188.367C1280.38 177.8 1278.75 166.523 1278.75 154.812C1278.75 94.8592 1321.34 46.2575 1373.86 46.2575C1401.02 46.2575 1422.67 57.6638 1440 78.5V1061.47Z" fill="#E1ECF4"/>
<path d="M1425.98 1917.95C1437.47 1930 1440 1947.29 1440 1966.5C1440 2002.92 1418.79 2032.45 1386.88 2032.45C1354.97 2032.45 1329.1 2002.92 1329.1 1966.5C1329.1 1958.44 1330.37 1950.71 1332.69 1943.57C1320.31 1941.35 1308.95 1937.21 1299.21 1931.6C1289 1940.39 1277.17 1945.42 1264.57 1945.42C1237.27 1945.42 1213.63 1921.85 1202.2 1887.51C1200.55 1888.6 1198.88 1889.66 1197.2 1890.67C1153.74 1916.83 1106.44 1911.91 1091.56 1879.69C1085.86 1867.35 1085.74 1852.79 1090.21 1838.05C1068.68 1845.65 1039.23 1841.36 1011.47 1824.28C998.023 1816 986.554 1805.71 977.587 1794.48C969.494 1799.4 960.253 1802.2 950.44 1802.2C926.132 1802.2 905.326 1785.06 896.796 1760.8C895.493 1760.9 894.179 1760.95 892.856 1760.95C882.904 1760.95 873.54 1758.08 865.363 1753.02C846.218 1799.23 805 1831.2 757.238 1831.2C691.22 1831.2 637.703 1770.12 637.703 1694.77C637.703 1686.09 638.414 1677.59 639.772 1669.36C630.078 1675.49 619.289 1678.91 607.919 1678.91C566.737 1678.91 533.18 1634.08 531.719 1578.01C515.401 1592.32 491.013 1601.4 463.762 1601.4C441.138 1601.4 420.484 1595.14 404.785 1584.83C405.957 1590.06 406.576 1595.53 406.576 1601.18C406.576 1637.6 380.707 1667.12 348.794 1667.12C342.818 1667.12 337.051 1666.09 331.627 1664.16C332.342 1668.96 332.711 1673.89 332.711 1678.91C332.711 1727.22 298.395 1766.39 256.066 1766.39C216.349 1766.39 183.693 1731.91 179.806 1687.75C174.349 1690.52 168.305 1692.05 161.947 1692.05L161.566 1692.05C152.904 1716 132.246 1732.85 108.136 1732.85C99.61 1732.85 91.5126 1730.74 84.2254 1726.95C74.0391 1745.73 55.8309 1758.23 35.0652 1758.23C31.3791 1758.23 27.7736 1757.84 24.2789 1757.08C27.2851 1767.65 28.9098 1778.93 28.9098 1790.64C39.4998 1850 49.9998 1845 -0.000155185 1848.5L-2.36965e-06 883.975L1440.29 883.975L1440.29 1864.25L1440.29 1880C1440.29 1894.36 1436.49 1907.12 1425.98 1917.95Z" fill="#E1ECF4"/>
</svg>
