<svg width="1440" height="271" viewBox="0 0 1440 271" fill="none" xmlns="http://www.w3.org/2000/svg">
<path d="M1339.92 165.703C1339.92 155.149 1341.79 144.986 1345.25 135.463C1341.22 136.141 1337.07 136.496 1332.82 136.496C1308.9 136.496 1287.92 125.227 1276.18 108.31C1267.78 111.721 1258.45 113.621 1248.63 113.621C1220.85 113.621 1197.04 98.4369 1187.06 76.8568H1186.62C1179.3 76.8568 1172.33 75.472 1166.05 72.9803C1161.57 112.779 1123.94 143.849 1078.18 143.849C1029.4 143.849 989.863 108.552 989.863 65.0108C989.863 60.4848 990.289 56.0445 991.112 51.7228C984.862 53.4588 978.218 54.3902 971.331 54.3902C935.817 54.3902 905.849 3.65506 903.842 0.18634L841.487 0.208008C840.57 0.208679 839.577 0.209045 838.5 0.209045C838.497 0.209045 838.494 0.209045 838.49 0.209045L745.574 0.241333C742.952 4.54663 705.543 65.0108 672.757 65.0108C659.656 65.0108 647.224 61.9308 636.054 56.4081C637.619 63.8262 638.438 71.4811 638.438 79.3077C638.438 147.214 576.774 202.262 500.705 202.262C445.672 202.262 398.179 173.45 376.119 131.801C366.697 136.359 355.907 138.947 344.44 138.947C342.916 138.947 341.402 138.901 339.901 138.811C330.072 160.678 306.099 176.119 278.09 176.119C266.783 176.119 256.135 173.603 246.81 169.163C236.478 179.283 223.263 188.564 207.769 196.02C175.779 211.411 141.854 215.279 117.043 208.434C122.191 221.715 122.054 234.836 115.488 245.959C99.0641 273.765 48.3912 279.007 0.152588 258.703V0.500397L745.574 0.241333C745.671 0.0823975 745.72 0 745.72 0H762.722C776.222 0 807.094 0.209015 838.49 0.209045C838.494 0.209045 838.497 0.209045 838.5 0.209045C839.577 0.209045 840.57 0.208679 841.487 0.208008C862.747 0.192139 842.861 0 880.733 0H903.735C903.735 0 903.771 0.0635681 903.842 0.18634L1440 0V263C1384.51 258.189 1339.92 216.504 1339.92 165.703Z" fill="#E1ECF4"/>
</svg>
