<svg width="31" height="37" viewBox="0 0 31 37" fill="none" xmlns="http://www.w3.org/2000/svg">
<path d="M24.8168 36.4999C25.2179 36.4145 25.6258 36.3529 26.0191 36.2402C28.5377 35.5171 30.1288 33.5392 30.2403 30.8462C30.3553 28.0642 30.0554 25.3219 29.0173 22.7169C28.3475 21.0349 27.3743 19.5801 25.7434 18.6915C24.7373 18.1437 23.6587 17.8822 22.5299 17.906C22.1738 17.9139 21.7996 18.0971 21.4746 18.2767C20.9508 18.5664 20.4659 18.9275 19.9577 19.2472C17.0027 21.1062 14.0459 21.1045 11.0935 19.2401C10.6838 18.9812 10.2646 18.7311 9.87998 18.437C9.17298 17.8971 8.39597 17.8302 7.55587 17.9553C5.2646 18.2987 3.64577 19.5774 2.55416 21.6179C1.58009 23.4391 1.14102 25.4179 0.946554 27.4566C0.846294 28.5037 0.798758 29.5604 0.811722 30.6119C0.848888 33.7523 2.9647 36.0896 6.03038 36.4339C6.10644 36.4427 6.1799 36.4771 6.2551 36.4999H24.8168Z" fill="#7F91AD"/>
<path d="M7.23659 9.16293C7.22103 13.9404 11.0024 17.8021 15.7353 17.8426C20.4042 17.8831 24.2374 13.995 24.2607 9.19464C24.2858 4.39334 20.4725 0.498239 15.75 0.500001C11.0395 0.501762 7.25215 4.35548 7.23745 9.16293H7.23659Z" fill="#7F91AD"/>
</svg>
