<svg width="1440" height="303" viewBox="0 0 1440 303" fill="none" xmlns="http://www.w3.org/2000/svg">
<path d="M1440 0L544 0H475H398H378L0 0L0 92.5C3.681 96.588 8.1776 99.9633 13.4684 101.47C19.686 103.24 26.2922 104.193 33.1385 104.193C60.9159 104.193 84.7173 88.5127 94.6964 66.2276H95.1356C102.461 66.2276 109.425 64.7976 115.711 62.2244C120.191 103.324 157.814 135.408 203.573 135.408C252.343 135.408 291.879 98.9585 291.879 53.9946C291.879 49.3207 291.454 44.7354 290.63 40.2725C296.88 42.0652 303.524 43.027 310.41 43.027C347.178 43.027 368 31.5 378 0H398H475H544C545.684 52.1801 575 53.9946 608.956 53.9946C622.056 53.9946 634.487 50.8139 645.656 45.1108C644.091 52.7712 643.272 60.6763 643.272 68.7585C643.272 138.883 704.931 195.73 780.993 195.73C836.021 195.73 883.51 165.976 905.568 122.966C914.989 127.674 925.778 130.346 937.244 130.346C938.767 130.346 940.282 130.299 941.782 130.206C951.61 152.787 975.581 168.733 1003.59 168.733C1014.89 168.733 1025.54 166.134 1034.86 161.55C1045.2 172 1058.41 181.584 1073.9 189.284C1105.89 205.178 1139.81 209.172 1164.62 202.103C1159.47 215.818 1159.61 229.367 1166.18 240.855C1183.32 270.839 1237.82 275.415 1287.89 251.076C1289.83 250.131 1291.75 249.151 1293.65 248.133C1306.82 280.089 1334.05 302.03 1365.5 302.03C1380.03 302.03 1393.66 297.348 1405.42 289.16C1416.64 294.381 1425.74 297.431 1440 299.5V0Z" fill="#E1ECF4"/>
</svg>
