<svg width="1439" height="639" viewBox="0 0 1439 639" fill="none" xmlns="http://www.w3.org/2000/svg">
<path d="M1439 0.5H0.5V601C2.39954 602.095 32.1698 620.883 34.1133 621.9C84.5 648.26 138.676 643.184 155.824 610.892C162.39 598.521 162.527 583.929 157.38 569.159C182.188 576.772 216.11 572.47 248.097 555.353C263.59 547.061 276.803 536.739 287.135 525.484C296.459 530.422 307.106 533.22 318.412 533.22C346.419 533.22 370.389 516.047 380.217 491.729C381.718 491.829 383.233 491.88 384.756 491.88C396.222 491.88 407.011 489.001 416.432 483.932C438.49 530.251 485.979 562.295 541.007 562.295C617.069 562.295 678.728 501.073 678.728 425.552C678.728 416.848 677.909 408.335 676.344 400.085C687.513 406.227 699.944 409.652 713.043 409.652C760.491 409.652 799.153 364.718 800.837 308.522C819.637 322.864 847.735 331.968 879.131 331.968C905.198 331.968 928.995 325.695 947.081 315.355C945.731 320.598 945.018 326.085 945.018 331.741C945.018 368.248 974.822 397.841 1011.59 397.841C1018.48 397.841 1025.12 396.805 1031.37 394.874C1030.55 399.68 1030.12 404.619 1030.12 409.652C1030.12 458.076 1069.66 497.331 1118.43 497.331C1164.19 497.331 1201.81 462.777 1206.29 418.515C1212.58 421.286 1219.54 422.827 1226.86 422.827H1227.3C1237.28 446.827 1261.08 463.714 1288.86 463.714C1298.68 463.714 1308.01 461.6 1316.41 457.806C1328.15 476.621 1349.12 489.154 1373.05 489.154C1377.3 489.154 1381.45 488.759 1385.48 488.004C1382.01 498.595 1380.14 509.899 1380.14 521.636C1380.14 583.5 1387.5 596.5 1439 607.5V0.5Z" fill="#E1ECF4"/>
</svg>
